<svg version="1.2" baseProfile="tiny" xmlns="http://www.w3.org/2000/svg" viewBox="0 0 323 85"><path fill="#F49CC2" d="M49.1 25.3l-2.4 2.4-8.2 8.3-1.6 1.6c-.2.2-.5.4-.7.6-.3-.2-.5-.4-.7-.6L33.9 36l-8.2-8.3-2.4-2.4c-2.9-2.9-2.9-7.7 0-10.6 1.5-1.4 3.4-2.2 5.3-2.2s3.8.7 5.3 2.2l.1.1 2.3 2.3 2.3-2.3s0-.1.1-.1c1.5-1.4 3.4-2.2 5.3-2.2s3.8.7 5.3 2.2c2.6 2.9 2.7 7.6-.2 10.6zM89.1 61.6L86.7 64l-8.2 8.3-1.6 1.6c-.2.2-.5.4-.7.6-.3-.2-.5-.4-.7-.6l-1.6-1.6-8.3-8.3-2.4-2.4c-2.9-2.9-2.9-7.7 0-10.6 1.5-1.4 3.4-2.2 5.3-2.2s3.8.7 5.3 2.2l.1.1 2.3 2.3 2.3-2.3s0-.1.1-.1c1.5-1.4 3.4-2.2 5.3-2.2s3.8.7 5.3 2.2c2.7 2.9 2.8 7.7-.1 10.6zM133.1 25.3l-2.4 2.4-8.2 8.3-1.6 1.6c-.2.2-.5.4-.7.6-.3-.2-.5-.4-.7-.6l-1.6-1.6-8.2-8.3-2.4-2.4c-2.9-2.9-2.9-7.7 0-10.6 1.5-1.4 3.4-2.2 5.3-2.2s3.8.7 5.3 2.2l.1.1 2.3 2.3 2.3-2.3s0-.1.1-.1c1.5-1.4 3.4-2.2 5.3-2.2s3.8.7 5.3 2.2c2.6 2.9 2.7 7.6-.2 10.6zM177.4 61.6L175 64l-8.2 8.3-1.6 1.6c-.2.2-.5.4-.7.6-.3-.2-.5-.4-.7-.6l-1.6-1.6L154 64l-2.4-2.4c-2.9-2.9-2.9-7.7 0-10.6 1.5-1.4 3.4-2.2 5.3-2.2s3.8.7 5.3 2.2l.1.1 2.3 2.3 2.3-2.3s0-.1.1-.1c1.5-1.4 3.4-2.2 5.3-2.2s3.8.7 5.3 2.2c2.7 2.9 2.7 7.7-.2 10.6zM217.7 25.3l-2.4 2.4-8.2 8.3-1.6 1.6c-.2.2-.5.4-.7.6-.3-.2-.5-.4-.7-.6l-1.6-1.6-8.2-8.3-2.4-2.4c-2.9-2.9-2.9-7.7 0-10.6 1.5-1.4 3.4-2.2 5.3-2.2s3.8.7 5.3 2.2l.1.1 2.3 2.3 2.3-2.3s0-.1.1-.1c1.5-1.4 3.4-2.2 5.3-2.2s3.8.7 5.3 2.2c2.7 2.9 2.7 7.6-.2 10.6zM260.1 61.6l-2.4 2.4-8.2 8.3-1.6 1.6c-.2.2-.5.4-.7.6-.3-.2-.5-.4-.7-.6l-1.6-1.6-8.2-8.3-2.4-2.4c-2.9-2.9-2.9-7.7 0-10.6 1.5-1.4 3.4-2.2 5.3-2.2s3.8.7 5.3 2.2l.1.1 2.3 2.3 2.3-2.3s0-.1.1-.1c1.5-1.4 3.4-2.2 5.3-2.2s3.8.7 5.3 2.2c2.6 2.9 2.7 7.7-.2 10.6zM298.4 25.3l-2.4 2.4-8.2 8.3-1.6 1.6c-.2.2-.5.4-.7.6-.3-.2-.5-.4-.7-.6l-1.6-1.6-8.2-8.3-2.4-2.4c-2.9-2.9-2.9-7.7 0-10.6 1.5-1.4 3.4-2.2 5.3-2.2s3.8.7 5.3 2.2l.1.1 2.3 2.3 2.3-2.3s0-.1.1-.1c1.5-1.4 3.4-2.2 5.3-2.2s3.8.7 5.3 2.2c2.7 2.9 2.7 7.6-.2 10.6z"/></svg>