<?xml version="1.0" encoding="utf-8"?>
<!-- Generator: Adobe Illustrator 18.0.0, SVG Export Plug-In . SVG Version: 6.00 Build 0)  -->
<svg version="1.2" baseProfile="tiny" id="Layer_9" xmlns="http://www.w3.org/2000/svg" xmlns:xlink="http://www.w3.org/1999/xlink"
	 x="0px" y="0px" viewBox="0 0 323 85" xml:space="preserve">
<path fill="#F49CC2" d="M49.1,25.3L49.1,25.3l-2.4,2.4l-8.2,8.3l-1.6,1.6c-0.2,0.2-0.5,0.4-0.7,0.6c-0.3-0.2-0.5-0.4-0.7-0.6
	l-1.6-1.6l-8.2-8.3l-2.4-2.4l0,0c-2.9-2.9-2.9-7.7,0-10.6c1.5-1.4,3.4-2.2,5.3-2.2s3.8,0.7,5.3,2.2c0,0,0,0,0.1,0.1l2.3,2.3l2.3-2.3
	c0,0,0-0.1,0.1-0.1c1.5-1.4,3.4-2.2,5.3-2.2c1.9,0,3.8,0.7,5.3,2.2C51.9,17.6,52,22.3,49.1,25.3z"/>
<path fill="#F49CC2" d="M89.1,61.6L89.1,61.6L86.7,64l-8.2,8.3l-1.6,1.6c-0.2,0.2-0.5,0.4-0.7,0.6c-0.3-0.2-0.5-0.4-0.7-0.6
	l-1.6-1.6L65.6,64l-2.4-2.4l0,0c-2.9-2.9-2.9-7.7,0-10.6c1.5-1.4,3.4-2.2,5.3-2.2s3.8,0.7,5.3,2.2c0,0,0,0,0.1,0.1l2.3,2.3l2.3-2.3
	c0,0,0-0.1,0.1-0.1c1.5-1.4,3.4-2.2,5.3-2.2c1.9,0,3.8,0.7,5.3,2.2C91.9,53.9,92,58.7,89.1,61.6z"/>
<path fill="#F49CC2" d="M133.1,25.3L133.1,25.3l-2.4,2.4l-8.2,8.3l-1.6,1.6c-0.2,0.2-0.5,0.4-0.7,0.6c-0.3-0.2-0.5-0.4-0.7-0.6
	l-1.6-1.6l-8.2-8.3l-2.4-2.4l0,0c-2.9-2.9-2.9-7.7,0-10.6c1.5-1.4,3.4-2.2,5.3-2.2s3.8,0.7,5.3,2.2c0,0,0,0,0.1,0.1l2.3,2.3l2.3-2.3
	c0,0,0-0.1,0.1-0.1c1.5-1.4,3.4-2.2,5.3-2.2c1.9,0,3.8,0.7,5.3,2.2C135.9,17.6,136,22.3,133.1,25.3z"/>
<path fill="#F49CC2" d="M177.4,61.6L177.4,61.6L175,64l-8.2,8.3l-1.6,1.6c-0.2,0.2-0.5,0.4-0.7,0.6c-0.3-0.2-0.5-0.4-0.7-0.6
	l-1.6-1.6L154,64l-2.4-2.4l0,0c-2.9-2.9-2.9-7.7,0-10.6c1.5-1.4,3.4-2.2,5.3-2.2s3.8,0.7,5.3,2.2c0,0,0,0,0.1,0.1l2.3,2.3l2.3-2.3
	c0,0,0-0.1,0.1-0.1c1.5-1.4,3.4-2.2,5.3-2.2c1.9,0,3.8,0.7,5.3,2.2C180.3,53.9,180.3,58.7,177.4,61.6z"/>
<path fill="#F49CC2" d="M217.7,25.3L217.7,25.3l-2.4,2.4l-8.2,8.3l-1.6,1.6c-0.2,0.2-0.5,0.4-0.7,0.6c-0.3-0.2-0.5-0.4-0.7-0.6
	l-1.6-1.6l-8.2-8.3l-2.4-2.4l0,0c-2.9-2.9-2.9-7.7,0-10.6c1.5-1.4,3.4-2.2,5.3-2.2s3.8,0.7,5.3,2.2c0,0,0,0,0.1,0.1l2.3,2.3l2.3-2.3
	c0,0,0-0.1,0.1-0.1c1.5-1.4,3.4-2.2,5.3-2.2c1.9,0,3.8,0.7,5.3,2.2C220.6,17.6,220.6,22.3,217.7,25.3z"/>
<path fill="#F49CC2" d="M260.1,61.6L260.1,61.6l-2.4,2.4l-8.2,8.3l-1.6,1.6c-0.2,0.2-0.5,0.4-0.7,0.6c-0.3-0.2-0.5-0.4-0.7-0.6
	l-1.6-1.6l-8.2-8.3l-2.4-2.4l0,0c-2.9-2.9-2.9-7.7,0-10.6c1.5-1.4,3.4-2.2,5.3-2.2s3.8,0.7,5.3,2.2c0,0,0,0,0.1,0.1l2.3,2.3l2.3-2.3
	c0,0,0-0.1,0.1-0.1c1.5-1.4,3.4-2.2,5.3-2.2c1.9,0,3.8,0.7,5.3,2.2C262.9,53.9,263,58.7,260.1,61.6z"/>
<path fill="#F49CC2" d="M298.4,25.3L298.4,25.3l-2.4,2.4l-8.2,8.3l-1.6,1.6c-0.2,0.2-0.5,0.4-0.7,0.6c-0.3-0.2-0.5-0.4-0.7-0.6
	l-1.6-1.6l-8.2-8.3l-2.4-2.4l0,0c-2.9-2.9-2.9-7.7,0-10.6c1.5-1.4,3.4-2.2,5.3-2.2s3.8,0.7,5.3,2.2c0,0,0,0,0.1,0.1l2.3,2.3l2.3-2.3
	c0,0,0-0.1,0.1-0.1c1.5-1.4,3.4-2.2,5.3-2.2c1.9,0,3.8,0.7,5.3,2.2C301.3,17.6,301.3,22.3,298.4,25.3z"/>
</svg>
