<svg version="1.2" baseProfile="tiny" xmlns="http://www.w3.org/2000/svg" viewBox="0 0 323 85"><path fill="#8A401E" d="M28.881-47.75l120.444 77.64-28.878 44.798L.003-2.952z"/><path fill="#5A1C0C" d="M111.9 69.4L9.5 3.4c-.9-.6-1.2-1.8-.6-2.8l26.7-41.4c.6-.9 1.8-1.2 2.8-.6l102.4 66c.9.6 1.2 1.8.6 2.8l-26.7 41.4c-.6 1-1.9 1.2-2.8.6z"/><path fill="none" d="M13.935-44.076l136.981 83.44-16.646 27.328-136.982-83.44z"/><text transform="rotate(31.347 19.606 62.636)" fill="#FBF397" font-family="'MyriadPro-Regular'" font-size="36">neiji</text><path fill="none" d="M-3.65-15.83l135.33 86.12-17.182 26.998-135.329-86.12z"/><text transform="rotate(32.471 -16.765 84.847)" fill="#FBF397" font-family="'MyriadPro-Regular'" font-size="10">c</text><text transform="rotate(32.471 -19.005 92.54)" fill="#FBF397" font-family="'MyriadPro-Regular'" font-size="10">h</text><text transform="rotate(32.471 -21.78 102.068)" fill="#FBF397" font-family="'MyriadPro-Regular'" font-size="10">o</text><text transform="rotate(32.471 -24.525 111.495)" fill="#FBF397" font-family="'MyriadPro-Regular'" font-size="10">c</text><text transform="rotate(32.471 -26.735 119.084)" fill="#FBF397" font-family="'MyriadPro-Regular'" font-size="10">o</text><text transform="rotate(32.471 -29.48 128.51)" fill="#FBF397" font-family="'MyriadPro-Regular'" font-size="10">l</text><text transform="rotate(32.471 -30.66 132.563)" fill="#FBF397" font-family="'MyriadPro-Regular'" font-size="10">a</text><text transform="rotate(32.471 -33.05 140.77)" fill="#FBF397" font-family="'MyriadPro-Regular'" font-size="10">t</text><text transform="rotate(32.471 -34.674 146.349)" fill="#FBF397" font-family="'MyriadPro-Regular'" font-size="10">e</text><path fill="none" stroke="#FBF399" stroke-miterlimit="10" d="M34.6-36.7l103.9 68.1"/><g><g fill="#FFF"><path d="M281.4 34.1zM271.9 24.8zM263.2 73.8c-4 5.4 23.8 4.8 20.3-.7M272.2 17.6c12 0 21.7 2.7 21.7 6s-9.7 6-21.7 6-19.3-3.5-19.3-6.8 7.4-5.2 19.3-5.2z"/><path d="M293.9 23.6s-1.8 38.8-5 45.7-29.5 7.7-33.1 0c-3.5-7.4-2.9-47.5-2.9-46.2M252.2 20.5zM254.1 19z"/><path d="M252.9 23.1l41 .6-41-.6z"/></g></g><g><g fill="none" stroke="#D2D2EA" stroke-miterlimit="10"><path d="M253.2 46.3c0 3.2 9.1 5.1 19.8 5.1M292.6 45.6c0 3.2-8.9 5.8-19.6 5.8"/></g><g fill="none" stroke="#D2D2EA" stroke-miterlimit="10"><path d="M253.7 55.7c0 3.2 8.7 3.3 19.3 3.3M292 52.4c0 3.2-8.3 6.7-18.9 6.7"/></g><g fill="none" stroke="#D2D2EA" stroke-miterlimit="10"><path d="M254.4 62.2c0 3.2 6.3 5.8 17 5.8M290.9 61.7c0 3.2-8.9 6.3-19.5 6.3"/></g><path fill="none" stroke="#D2D2EA" stroke-miterlimit="10" d="M263.4 73.9c-4 5.4 23.8 4.8 20.3-.7"/><g fill="none" stroke="#000" stroke-width=".5" stroke-miterlimit="10"><path d="M261 1.6s3.3 4.2 0 7.5 0 6.8 0 6.8M273.1 1.6s3.3 4.2 0 7.5 0 6.8 0 6.8M284.3 1.6s3.3 4.2 0 7.5 0 6.8 0 6.8"/></g><g fill="none" stroke="#D2D2EA" stroke-miterlimit="10"><path d="M294.1 23.7c0 3.3-9.7 6-21.7 6s-19.3-3.5-19.3-6.8 7.4-5.2 19.3-5.2c12 0 21.7 2.7 21.7 6z"/><path d="M294.1 23.7s-1.8 38.8-5 45.7-29.5 7.7-33.1 0c-3.6-7.7-2.9-46.2-2.9-46.2M253.1 38.6c0 3.2 9.9 5.3 20.6 5.3M293.2 37.6c0 3.2-9 6.3-19.6 6.3"/><g><path d="M253 31.3c0 3.2 9.9 4.9 20.6 4.9M293.7 29.7c0 3.2-9.5 6.5-20.1 6.5"/></g></g><path fill="#D7E7AD" d="M292.4 25.8l-3.1 1.6-32.9-.8-1.6-1c3.4-1.4 8.1-3.6 17.2-3.6 9.4.1 16.6 2.1 20.4 3.8z"/><path fill="#D7E7AC" d="M290.3 27.1c-2.7 1.4-5.3 2.4-17.2 2.4-12 0-14.4-1.7-17.6-3.3l37.1-.3c.1.2-2.1 1.1-2.3 1.2z"/><path fill="none" stroke="#B7CC75" stroke-width=".5" stroke-miterlimit="10" d="M273.1 26.9v2.4"/></g></svg>