<?xml version="1.0" encoding="utf-8"?>
<!-- Generator: Adobe Illustrator 18.0.0, SVG Export Plug-In . SVG Version: 6.00 Build 0)  -->
<svg version="1.2" baseProfile="tiny" xmlns="http://www.w3.org/2000/svg" xmlns:xlink="http://www.w3.org/1999/xlink" x="0px"
	 y="0px" viewBox="0 0 323 85" xml:space="preserve">
<g id="Choco">
	
		<rect x="3" y="-13.2" transform="matrix(0.8405 0.5418 -0.5418 0.8405 19.2081 -38.2813)" fill="#8A401E" width="143.3" height="53.3"/>
	<path fill="#5A1C0C" d="M111.9,69.4L9.5,3.4C8.6,2.8,8.3,1.6,8.9,0.6l26.7-41.4c0.6-0.9,1.8-1.2,2.8-0.6l102.4,66
		c0.9,0.6,1.2,1.8,0.6,2.8l-26.7,41.4C114.1,69.8,112.8,70,111.9,69.4z"/>
	<rect x="-6.1" y="-4.7" transform="matrix(0.854 0.5202 -0.5202 0.854 16.6992 -36.8889)" fill="none" width="160.4" height="32"/>
	
		<text transform="matrix(0.854 0.5202 -0.5202 0.854 35.4448 -1.0564)" fill="#FBF397" font-family="'MyriadPro-Regular'" font-size="36">  neiji</text>
	
		<rect x="-24.8" y="24.7" transform="matrix(0.8437 0.5369 -0.5369 0.8437 30.535 -23.3539)" fill="none" width="160.4" height="32"/>
	
		<text transform="matrix(0.8437 0.5369 -0.5369 0.8437 42.9331 22.2668)" fill="#FBF397" font-family="'MyriadPro-Regular'" font-size="10">c</text>
	
		<text transform="matrix(0.8437 0.5369 -0.5369 0.8437 46.7131 24.6722)" fill="#FBF397" font-family="'MyriadPro-Regular'" font-size="10">h</text>
	
		<text transform="matrix(0.8437 0.5369 -0.5369 0.8437 51.3953 27.6518)" fill="#FBF397" font-family="'MyriadPro-Regular'" font-size="10">o</text>
	
		<text transform="matrix(0.8437 0.5369 -0.5369 0.8437 56.0272 30.5993)" fill="#FBF397" font-family="'MyriadPro-Regular'" font-size="10">c</text>
	
		<text transform="matrix(0.8437 0.5369 -0.5369 0.8437 59.7561 32.9722)" fill="#FBF397" font-family="'MyriadPro-Regular'" font-size="10">o</text>
	
		<text transform="matrix(0.8437 0.5369 -0.5369 0.8437 64.388 35.9198)" fill="#FBF397" font-family="'MyriadPro-Regular'" font-size="10">l</text>
	
		<text transform="matrix(0.8437 0.5369 -0.5369 0.8437 66.3794 37.187)" fill="#FBF397" font-family="'MyriadPro-Regular'" font-size="10">a</text>
	
		<text transform="matrix(0.8437 0.5369 -0.5369 0.8437 70.4123 39.7533)" fill="#FBF397" font-family="'MyriadPro-Regular'" font-size="10">t</text>
	
		<text transform="matrix(0.8437 0.5369 -0.5369 0.8437 73.1534 41.4977)" fill="#FBF397" font-family="'MyriadPro-Regular'" font-size="10">e</text>
	<line fill="none" stroke="#FBF399" stroke-miterlimit="10" x1="34.6" y1="-36.7" x2="138.5" y2="31.4"/>
</g>
<g id="Cup_Color">
	<g>
		<path fill="#FFFFFF" d="M281.4,34.1L281.4,34.1z"/>
		<path fill="#FFFFFF" d="M271.9,24.8L271.9,24.8z"/>
		<path fill="#FFFFFF" stroke="#D2D2EA" stroke-miterlimit="10" d="M272.9,51.3"/>
		<path fill="#FFFFFF" stroke="#D2D2EA" stroke-miterlimit="10" d="M253.1,46.2"/>
		<path fill="#FFFFFF" stroke="#D2D2EA" stroke-miterlimit="10" d="M272.9,51.3"/>
		<path fill="#FFFFFF" stroke="#D2D2EA" stroke-miterlimit="10" d="M292.5,45.5"/>
		<path fill="#FFFFFF" stroke="#D2D2EA" stroke-miterlimit="10" d="M272.9,59"/>
		<path fill="#FFFFFF" stroke="#D2D2EA" stroke-miterlimit="10" d="M253.6,55.7"/>
		<path fill="#FFFFFF" stroke="#D2D2EA" stroke-miterlimit="10" d="M272.9,59"/>
		<path fill="#FFFFFF" stroke="#D2D2EA" stroke-miterlimit="10" d="M291.8,52.3"/>
		<path fill="#FFFFFF" stroke="#D2D2EA" stroke-miterlimit="10" d="M271.2,67.9"/>
		<path fill="#FFFFFF" stroke="#D2D2EA" stroke-miterlimit="10" d="M254.2,62.1"/>
		<path fill="#FFFFFF" stroke="#D2D2EA" stroke-miterlimit="10" d="M271.2,67.9"/>
		<path fill="#FFFFFF" stroke="#D2D2EA" stroke-miterlimit="10" d="M290.7,61.6"/>
		<path fill="#FFFFFF" d="M263.2,73.8c-4,5.4,23.8,4.8,20.3-0.7"/>
		<path fill="#FFFFFF" d="M272.2,17.6c12,0,21.7,2.7,21.7,6c0,3.3-9.7,6-21.7,6c-12,0-19.3-3.5-19.3-6.8
			C252.9,19.5,260.3,17.6,272.2,17.6z"/>
		<path fill="#FFFFFF" d="M293.9,23.6c0,0-1.8,38.8-5,45.7s-29.5,7.7-33.1,0c-3.5-7.4-2.9-47.5-2.9-46.2"/>
		<path fill="#FFFFFF" stroke="#D2D2EA" stroke-miterlimit="10" d="M273.4,43.9"/>
		<path fill="#FFFFFF" stroke="#D2D2EA" stroke-miterlimit="10" d="M252.9,38.5"/>
		<path fill="#FFFFFF" stroke="#D2D2EA" stroke-miterlimit="10" d="M273.4,43.9"/>
		<path fill="#FFFFFF" stroke="#D2D2EA" stroke-miterlimit="10" d="M293.1,37.6"/>
		<path fill="#FFFFFF" stroke="#D2D2EA" stroke-miterlimit="10" d="M273.4,36.1"/>
		<path fill="#FFFFFF" stroke="#D2D2EA" stroke-miterlimit="10" d="M252.8,31.2"/>
		<path fill="#FFFFFF" stroke="#D2D2EA" stroke-miterlimit="10" d="M273.4,36.1"/>
		<path fill="#FFFFFF" stroke="#D2D2EA" stroke-miterlimit="10" d="M293.6,29.6"/>
		<path fill="#FFFFFF" stroke="#D2D2EA" stroke-miterlimit="10" d="M293.9,23.6"/>
		<path fill="#FFFFFF" d="M252.2,20.5L252.2,20.5z"/>
		<path fill="#FFFFFF" d="M254.1,19L254.1,19z"/>
		<path fill="#FFFFFF" stroke="#B7CC75" stroke-width="0.5" stroke-miterlimit="10" d="M272.9,29.3"/>
		<path fill="#FFFFFF" stroke="#B7CC75" stroke-width="0.5" stroke-miterlimit="10" d="M272.9,26.8"/>
		<path fill="#FFFFFF" d="M252.9,23.1l41,0.6L252.9,23.1z"/>
	</g>
</g>
<g id="Cup">
	<g>
		<path fill="none" stroke="#D2D2EA" stroke-miterlimit="10" d="M253.2,46.3c0,3.2,9.1,5.1,19.8,5.1"/>
		<path fill="none" stroke="#D2D2EA" stroke-miterlimit="10" d="M292.6,45.6c0,3.2-8.9,5.8-19.6,5.8"/>
	</g>
	<g>
		<path fill="none" stroke="#D2D2EA" stroke-miterlimit="10" d="M253.7,55.7c0,3.2,8.7,3.3,19.3,3.3"/>
		<path fill="none" stroke="#D2D2EA" stroke-miterlimit="10" d="M292,52.4c0,3.2-8.3,6.7-18.9,6.7"/>
	</g>
	<g>
		<path fill="none" stroke="#D2D2EA" stroke-miterlimit="10" d="M254.4,62.2c0,3.2,6.3,5.8,17,5.8"/>
		<path fill="none" stroke="#D2D2EA" stroke-miterlimit="10" d="M290.9,61.7c0,3.2-8.9,6.3-19.5,6.3"/>
	</g>
	<g>
		<path fill="none" stroke="#D2D2EA" stroke-miterlimit="10" d="M263.4,73.9c-4,5.4,23.8,4.8,20.3-0.7"/>
		<path fill="none" stroke="#D2D2EA" stroke-miterlimit="10" d="M275.5,79.9"/>
	</g>
	<g>
		<path fill="none" stroke="#000000" stroke-width="0.5" stroke-miterlimit="10" d="M261,1.6c0,0,3.3,4.2,0,7.5s0,6.8,0,6.8"/>
		<path fill="none" stroke="#000000" stroke-width="0.5" stroke-miterlimit="10" d="M273.1,1.6c0,0,3.3,4.2,0,7.5s0,6.8,0,6.8"/>
		<path fill="none" stroke="#000000" stroke-width="0.5" stroke-miterlimit="10" d="M284.3,1.6c0,0,3.3,4.2,0,7.5s0,6.8,0,6.8"/>
	</g>
	<g>
		<path fill="none" stroke="#D2D2EA" stroke-miterlimit="10" d="M294.1,23.7c0,3.3-9.7,6-21.7,6c-12,0-19.3-3.5-19.3-6.8
			c0-3.3,7.4-5.2,19.3-5.2C284.4,17.7,294.1,20.4,294.1,23.7z"/>
		<path fill="none" stroke="#D2D2EA" stroke-miterlimit="10" d="M294.1,23.7c0,0-1.8,38.8-5,45.7s-29.5,7.7-33.1,0
			c-3.6-7.7-2.9-46.2-2.9-46.2"/>
		<g>
			<path fill="none" stroke="#D2D2EA" stroke-miterlimit="10" d="M253.1,38.6c0,3.2,9.9,5.3,20.6,5.3"/>
			<path fill="none" stroke="#D2D2EA" stroke-miterlimit="10" d="M293.2,37.6c0,3.2-9,6.3-19.6,6.3"/>
		</g>
		<g>
			<path fill="none" stroke="#D2D2EA" stroke-miterlimit="10" d="M253,31.3c0,3.2,9.9,4.9,20.6,4.9"/>
			<path fill="none" stroke="#D2D2EA" stroke-miterlimit="10" d="M293.7,29.7c0,3.2-9.5,6.5-20.1,6.5"/>
		</g>
		<path fill="none" stroke="#D2D2EA" stroke-miterlimit="10" d="M294.1,23.7"/>
	</g>
	<path fill="none" d="M252.4,20.6"/>
	<path fill="none" d="M254.3,19.1"/>
	<g>
		<g>
			<path fill="#D7E7AD" d="M292.4,25.8l-3.1,1.6l-32.9-0.8l-1.6-1c3.4-1.4,8.1-3.6,17.2-3.6C281.4,22.1,288.6,24.1,292.4,25.8z"/>
			<path fill="#D7E7AC" d="M290.3,27.1c-2.7,1.4-5.3,2.4-17.2,2.4c-12,0-14.4-1.7-17.6-3.3l37.1-0.3C292.7,26.1,290.5,27,290.3,27.1
				z"/>
		</g>
		<line fill="none" stroke="#B7CC75" stroke-width="0.5" stroke-miterlimit="10" x1="273.1" y1="26.9" x2="273.1" y2="29.3"/>
	</g>
</g>
</svg>
