<svg width="40px" height="40px" viewBox="0 0 60 60" xmlns="http://www.w3.org/2000/svg">
 <style>.stb0{stroke:#fff} .stf0{fill:#fff}</style>
 <g>
  <ellipse class="stb0" rx="2.5" id="svg_27" cy="74.5" cx="802.5" stroke="#000" fill="#fff"/>
  <ellipse class="stb0" stroke="#000" fill="none" cx="29.59092" cy="16.32684" id="svg_3" rx="10.58185" ry="10.0304" stroke-width="5"/>
  <ellipse class="stb0" stroke="#000" fill="none" cx="29.59092" cy="16.32684" id="svg_2" rx="7.05457" ry="6.68693" stroke-width="5"/>
  <path class="stb0" stroke="#000" fill="#000000" stroke-width="5" d="m24.25879,48.79912c1.18444,-1.90075 3.31992,-3.52303 5.13663,-5.13304c2.11335,1.0332 3.93916,3.30623 5.52763,4.88934c-1.41681,1.83115 -3.45628,3.49883 -5.29358,5.14105c-1.98063,-1.50248 -3.67441,-3.21909 -5.37068,-4.89735l0,0z" id="svg_6"/>
  <path class="stb0" stroke="#000" fill="none" stroke-width="5" id="svg_31" d="m6.093,23.31431c0,0.09037 0.32139,0.89607 0.47666,1.62655c0.24765,1.16514 0.46303,2.62441 0.95332,4.15674c0.4638,1.44957 1.15884,2.94222 2.19264,4.33747c0.97553,1.31661 2.18401,2.53993 3.43195,3.52419c1.04153,0.82146 2.05085,1.60429 3.05063,2.16873c0.91573,0.51699 1.94257,1.11327 3.05062,1.53619c1.00828,0.38484 2.10732,0.4999 3.05062,0.72291c0.96571,0.22831 2.00197,0.36146 3.05063,0.45182c1.04865,0.09037 2.1937,0.14022 3.05062,0.18073c0.95689,0.04524 2.00197,0.18073 2.95529,0.18073c0.95332,0 1.62065,-0.09037 2.19264,-0.09037l0.47666,-0.09037l0.09534,0l0.09534,-0.09037"/>
  <path class="stb0" stroke="#000" fill="none" stroke-width="5" id="svg_32" d="m6.379,27.06128c0,0.09036 0.32139,0.89607 0.47666,1.62655c0.24766,1.16514 0.46304,2.62441 0.95333,4.15674c0.4638,1.44958 1.15884,2.94222 2.19263,4.33747c0.97553,1.31661 2.18402,2.53993 3.43195,3.52419c1.04152,0.82146 2.05085,1.60429 3.05062,2.16873c0.91573,0.51699 1.94257,1.11327 3.05063,1.53619c1.00828,0.38484 2.10732,0.4999 3.05062,0.72291c0.96571,0.22831 2.00197,0.36146 3.05063,0.45182c1.04865,0.09036 2.1937,0.14021 3.05062,0.18073c0.95689,0.04524 2.00197,0.18073 2.95529,0.18073c0.95332,0 1.62065,-0.09037 2.19264,-0.09037l0.47666,-0.09036l0.09534,0l0.09533,-0.09037"/>
  <path class="stb0" stroke="#000" fill="none" stroke-width="5" id="svg_34" d="m8.87547,21.97251c-0.01351,0.08945 0.18418,0.9302 0.22866,1.67416c0.07096,1.18665 0.06599,2.66013 0.32223,4.24285c0.24239,1.49725 0.70725,3.06819 1.522,4.58824c0.76883,1.43437 1.78223,2.80768 2.87041,3.94965c0.90819,0.95308 1.79029,1.86359 2.69558,2.55664c0.82919,0.63479 1.75652,1.36298 2.79016,1.93048c0.94057,0.5164 2.01131,0.77794 2.91175,1.12541c0.92183,0.35573 1.92773,0.62674 2.95229,0.85706c1.02455,0.23032 2.1506,0.43348 2.99281,0.5887c0.94047,0.17332 1.95475,0.44783 2.89844,0.5759c0.9437,0.12806 1.6178,0.12825 2.18402,0.20509l0.48535,-0.02542l0.09437,0.01281l0.10788,-0.07665"/>
  <path class="stb0" stroke="#000" fill="none" stroke-width="5" id="svg_37" d="m28.14664,45.67382c0.09236,0.02239 0.99549,-0.07312 1.78057,-0.0347c1.25223,0.06127 2.79709,0.22505 4.48473,0.15448c1.59651,-0.06675 3.29432,-0.33518 4.97653,-0.93882c1.5874,-0.56963 3.13717,-1.3763 4.45237,-2.27844c1.09767,-0.75292 2.14787,-1.48584 2.9725,-2.26411c0.75531,-0.71284 1.61918,-1.50808 2.32599,-2.42084c0.64317,-0.83058 1.03309,-1.81135 1.49475,-2.62235c0.47264,-0.83027 0.86548,-1.74891 1.21768,-2.68953c0.35219,-0.94061 0.68686,-1.9798 0.9406,-2.75669c0.28333,-0.86753 0.68076,-1.79369 0.91698,-2.66915c0.23621,-0.87546 0.3092,-1.51068 0.45093,-2.03595l0.02575,-0.46012l0.02362,-0.08755l-0.06874,-0.10993"/>
  <path class="stb0" stroke="#000" fill="none" stroke-width="5" id="svg_38" d="m27.57462,43.50511c0.09236,0.02239 0.99549,-0.07312 1.78057,-0.0347c1.25223,0.06127 2.79709,0.22505 4.48473,0.15448c1.59651,-0.06675 3.29432,-0.33518 4.97653,-0.93882c1.5874,-0.56963 3.13717,-1.3763 4.45237,-2.27844c1.09767,-0.75292 2.14787,-1.48584 2.9725,-2.26411c0.75531,-0.71284 1.61918,-1.50808 2.32599,-2.42084c0.64317,-0.83058 1.03309,-1.81135 1.49475,-2.62235c0.47264,-0.83027 0.86548,-1.74891 1.21768,-2.68953c0.35219,-0.94061 0.68686,-1.9798 0.9406,-2.75669c0.28333,-0.86753 0.68076,-1.79369 0.91698,-2.66915c0.23621,-0.87546 0.3092,-1.51068 0.45093,-2.03595l0.02575,-0.46012l0.02362,-0.08755l-0.06874,-0.10993"/>
  <path class="stb0" stroke="#000" fill="none" stroke-width="5" id="svg_39" d="m26.33537,42.3304c0.09236,0.02239 0.99549,-0.07312 1.78057,-0.0347c1.25223,0.06127 2.79709,0.22505 4.48473,0.15448c1.59651,-0.06675 3.29432,-0.33518 4.97653,-0.93882c1.5874,-0.56963 3.13717,-1.3763 4.45237,-2.27844c1.09767,-0.75292 2.14787,-1.48584 2.9725,-2.26411c0.75531,-0.71284 1.61918,-1.50808 2.32599,-2.42084c0.64317,-0.83058 1.03309,-1.81135 1.49475,-2.62235c0.47264,-0.83027 0.86548,-1.74891 1.21768,-2.68953c0.35219,-0.94061 0.68686,-1.9798 0.9406,-2.75669c0.28333,-0.86753 0.68076,-1.79369 0.91698,-2.66915c0.23621,-0.87546 0.3092,-1.51068 0.45093,-2.03595l0.02575,-0.46012l0.02362,-0.08755l-0.06874,-0.10993"/>
  <path class="stb0 stf0" stroke="#000" fill="none" stroke-width="5" d="m22.82747,47.0171l2.53629,-20.65038l8.45432,0l2.53629,20.65038l-13.52691,0z" id="svg_41"/>
  <path class="stb0" stroke="#000" fill="none" stroke-width="5" id="svg_43" d="m7.91564,30.90129c0,0.09036 0.32139,0.89607 0.47666,1.62655c0.24766,1.16514 3.55425,9.84504 0.95333,4.15674c-2.60091,-5.6883 1.15884,2.94222 2.19263,4.33747c0.97553,1.31661 2.18402,2.53993 3.43195,3.52419c1.04152,0.82146 2.05085,1.60429 3.05062,2.16873c0.91573,0.51699 1.94257,1.11327 3.05063,1.53619c1.00828,0.38484 2.10732,0.4999 3.05062,0.72291c0.96571,0.22831 2.00197,0.36146 3.05063,0.45182c1.04865,0.09036 2.1937,0.14021 3.05062,0.18073c0.95689,0.04524 2.00197,0.18073 2.95529,0.18073c0.95332,0 1.62065,-0.09037 2.19264,-0.09037l0.47666,-0.09036l0.09534,0c0.03178,-0.03012 7.90195,-3.19964 0.09533,-0.09037"/>
  <path class="stb0" stroke="#000" fill="none" stroke-width="5" id="svg_44" d="m27.75989,49.24899c0.09236,0.02239 0.99549,-0.07312 1.78057,-0.0347c1.25223,0.06127 2.79709,0.22505 4.48473,0.15448c1.59651,-0.06675 5.17112,-1.0677 4.97653,-0.93882c-0.19458,0.12888 3.13717,-1.3763 4.45237,-2.27844c1.09767,-0.75292 2.14787,-1.48584 2.9725,-2.26411c0.75531,-0.71284 1.61918,-1.50808 2.32599,-2.42084c0.64317,-0.83058 1.03309,-1.81135 1.49475,-2.62235c0.47264,-0.83027 0.86548,-1.74891 1.21768,-2.68953c0.35219,-0.94061 -0.77794,2.81994 0.9406,-2.75669c1.71853,-5.57663 0.68076,-1.79369 0.91698,-2.66915c0.23621,-0.87546 0.3092,-1.51068 0.45093,-2.03595l0.02575,-0.46012l0.02362,-0.08755l-0.06874,-0.10993"/>
  <path class="stb0" stroke="#000" fill="none" stroke-width="5" d="m4.2057,29.27332l2.44242,-11.46221l6.48882,9.94542l-8.93124,1.51679z" id="svg_47"/>
  <path class="stb0" stroke="#000" fill="none" stroke-width="5" d="m47.25051,27.93952l7.57547,-9.22929l1.13295,11.64426l-8.70842,-2.41497z" id="svg_48"/>
  <rect class="stb0" stroke="#000" fill="none" stroke-width="5" x="20.31732" y="30.58302" width="18.5472" height="0.62172" id="svg_49"/>
 </g>

</svg>